<?xml version="1.0" encoding="UTF-8"?>
<svg width="421.12pt" height="532pt" version="1.1" viewBox="0 0 421.12 532" xmlns="http://www.w3.org/2000/svg" xmlns:cc="http://creativecommons.org/ns#" xmlns:dc="http://purl.org/dc/elements/1.1/" xmlns:rdf="http://www.w3.org/1999/02/22-rdf-syntax-ns#">
 <metadata>
  <rdf:RDF>
   <cc:Work rdf:about="">
    <dc:format>image/svg+xml</dc:format>
    <dc:type rdf:resource="http://purl.org/dc/dcmitype/StillImage"/>
    <dc:title/>
   </cc:Work>
  </rdf:RDF>
 </metadata>
 <g transform="translate(-139.44 -13.438)">
  <path d="m546.56 121.52c-140-14.559-180.88-95.199-182.56-99.121-2.8008-5.6016-7.8398-8.9609-14-8.9609s-11.199 3.3594-14 8.9609c-0.55859 1.1211-40.879 84.559-182.56 99.121-7.8398 0.55859-14 7.2812-14 15.121v139.44c0 161.28 195.44 263.76 203.28 267.68 2.2383 1.1211 4.4805 1.6797 7.2812 1.6797 2.8008 0 5.0391-0.55859 7.2812-1.6797 8.3984-4.4805 203.28-106.4 203.28-267.68l-8e-3 -138.88c0-7.8398-6.1602-14.559-14-15.68zm-113.12 233.52h-64.961v43.121c0 2.8008-2.2383 5.0391-5.0391 5.0391h-26.32c-2.8008 0-5.0391-2.2383-5.0391-5.0391v-43.121h-65.523c-6.7188 0-10.641-7.8398-6.1602-12.879l42-49.84h-24.078c-6.7188 0-10.641-7.8398-6.1602-12.879l44.801-52.641h-12.879c-6.7188 0-10.641-7.8398-6.1602-12.879l45.922-54.32c3.3594-3.9219 8.9609-3.9219 12.32 0l45.922 54.32c4.4805 5.0391 0.55859 12.879-6.1602 12.879h-12.879l44.801 52.641c4.4805 5.0391 0.55859 12.879-6.1602 12.879h-24.078l42 49.84c4.4688 5.0391 0.55078 12.879-6.168 12.879z"/>
 </g>
</svg>
