<?xml version="1.0" encoding="UTF-8"?><svg width="16" height="16" version="1.1" viewBox="0 0 16 16" xmlns="http://www.w3.org/2000/svg"><g fill="#000"><path d="m7.7233 3.2011c0.60803 0 1.099-0.49419 1.099-1.1022s-0.49095-1.0989-1.099-1.0989c-0.60804 0-1.1022 0.49082-1.1022 1.0989s0.49424 1.1022 1.1022 1.1022z"/><path d="m5.8637 3.3832c0.04229-0.16912-0.06494-0.3381-0.23087-0.38039l-0.91688-0.22107c-0.17236-0.03892-0.34135 0.06175-0.3804 0.23087l-0.7705 3.1894c-0.04229 0.16912 0.06175 0.3381 0.23087 0.3804l0.92007 0.22107c0.16589 0.04229 0.3381-0.06175 0.37716-0.23087l0.77055-3.1894z"/><path d="m10.097 14.727c0 0.0066-0.0032 0.0132-0.0032 0.0162 0 0.1399 0.1138 0.2537 0.2536 0.2537 0.1268 0 0.2341-0.0976 0.2503-0.2211l1.8468-10.017v-0.0196c0-0.13649-0.1107-0.25033-0.2504-0.25033-0.1268 0-0.2244 0.09757-0.2504 0.22107l-1.8467 10.017z"/><path d="m3.9525 14.07c-0.0098 0.0521-0.01304 0.1041-0.01304 0.156 0 0.4293 0.34467 0.774 0.77378 0.774 0.35115 0 0.64709-0.2341 0.74129-0.5527l1.3299-5.5044 1.2679 5.4719c0.08135 0.3381 0.38696 0.5854 0.74776 0.5854 0.42925 0 0.77378-0.3447 0.77378-0.7738 0-0.0585-0.00642-0.1137-0.01608-0.169l-1.7395-7.2702 0.14629-0.64048 0.11366 0.50399c0.104 0.32831 0.40319 0.36094 0.40319 0.36094l1.7914 0.45514c0.0359 0.00656 0.0716 0.0098 0.1074 0.0098 0.2926 0 0.5299-0.23406 0.5299-0.52669 0-0.25033-0.1722-0.4617-0.4062-0.51689l-1.5511-0.39019-0.42588-1.7297c-0.20162-0.96561-1.1249-0.9429-1.1249-0.9429-0.89742-0.02284-1.1217 0.92006-1.1217 0.92006l-2.3278 9.7797z"/></g></svg>
