<svg width="21" height="24" viewBox="0 0 21 24" fill="none" xmlns="http://www.w3.org/2000/svg">
<path fill-rule="evenodd" clip-rule="evenodd" d="M0 1C0 0.447716 0.447715 0 1 0H19.8696C20.4218 0 20.8696 0.447715 20.8696 1V23C20.8696 23.5523 20.4218 24 19.8696 24H1C0.447715 24 0 23.5523 0 23V1ZM3.12988 4.12988C3.12988 3.5776 3.5776 3.12988 4.12988 3.12988H16.7386C17.2909 3.12988 17.7386 3.5776 17.7386 4.12988V17.1096L13.5644 13.5647L9.36432 17.1316L9.34787 17.1182L6.21413 19.9038L5.21758 18.7826L8.1686 16.1595L6.2606 14.6084L3.12988 17.1535V4.12988Z" fill="white"/>
</svg>
