<svg width="116" height="23" viewBox="0 0 116 23" fill="none" xmlns="http://www.w3.org/2000/svg">
<path d="M36.704 6.8C36.7573 6.8 36.8 6.82133 36.832 6.864C36.8747 6.896 36.896 6.93867 36.896 6.992V8.56C36.896 8.61333 36.8747 8.66133 36.832 8.704C36.8 8.736 36.7573 8.752 36.704 8.752H33.84C33.7867 8.752 33.76 8.77867 33.76 8.832V17.808C33.76 17.8613 33.7387 17.9093 33.696 17.952C33.664 17.984 33.6213 18 33.568 18H31.696C31.6427 18 31.5947 17.984 31.552 17.952C31.52 17.9093 31.504 17.8613 31.504 17.808V8.832C31.504 8.77867 31.4773 8.752 31.424 8.752H28.64C28.5867 8.752 28.5387 8.736 28.496 8.704C28.464 8.66133 28.448 8.61333 28.448 8.56V6.992C28.448 6.93867 28.464 6.896 28.496 6.864C28.5387 6.82133 28.5867 6.8 28.64 6.8H36.704ZM41.7011 9.664C42.0851 9.664 42.3891 9.73867 42.6131 9.888C42.6985 9.93067 42.7305 10.0107 42.7091 10.128L42.3731 11.952C42.3625 12.08 42.2878 12.1173 42.1491 12.064C41.9891 12.0107 41.8025 11.984 41.5891 11.984C41.5038 11.984 41.3865 11.9947 41.2371 12.016C40.8531 12.048 40.5278 12.192 40.2611 12.448C39.9945 12.6933 39.8611 13.024 39.8611 13.44V17.808C39.8611 17.8613 39.8398 17.9093 39.7971 17.952C39.7651 17.984 39.7225 18 39.6691 18H37.7971C37.7438 18 37.6958 17.984 37.6531 17.952C37.6211 17.9093 37.6051 17.8613 37.6051 17.808V9.968C37.6051 9.91467 37.6211 9.872 37.6531 9.84C37.6958 9.79733 37.7438 9.776 37.7971 9.776H39.6691C39.7225 9.776 39.7651 9.79733 39.7971 9.84C39.8398 9.872 39.8611 9.91467 39.8611 9.968V10.576C39.8611 10.608 39.8718 10.6293 39.8931 10.64C39.9145 10.6507 39.9305 10.6453 39.9411 10.624C40.3785 9.984 40.9651 9.664 41.7011 9.664ZM47.2364 9.648C47.9297 9.648 48.5484 9.77067 49.0924 10.016C49.6364 10.2507 50.0577 10.576 50.3564 10.992C50.6657 11.408 50.8204 11.872 50.8204 12.384V17.808C50.8204 17.8613 50.799 17.9093 50.7564 17.952C50.7244 17.984 50.6817 18 50.6284 18H48.7564C48.703 18 48.655 17.984 48.6124 17.952C48.5804 17.9093 48.5644 17.8613 48.5644 17.808V17.28C48.5644 17.248 48.5537 17.2267 48.5324 17.216C48.511 17.2053 48.4897 17.216 48.4684 17.248C48.0204 17.8347 47.3004 18.128 46.3084 18.128C45.4764 18.128 44.8044 17.9253 44.2924 17.52C43.7804 17.1147 43.5244 16.5173 43.5244 15.728C43.5244 14.9067 43.8124 14.272 44.3884 13.824C44.9644 13.3653 45.7857 13.136 46.8524 13.136H48.4844C48.5377 13.136 48.5644 13.1093 48.5644 13.056V12.704C48.5644 12.352 48.4577 12.08 48.2444 11.888C48.031 11.6853 47.711 11.584 47.2844 11.584C46.9537 11.584 46.6764 11.6427 46.4524 11.76C46.239 11.8773 46.1004 12.0427 46.0364 12.256C46.0044 12.3733 45.935 12.4267 45.8284 12.416L43.8924 12.16C43.7644 12.1387 43.7057 12.0907 43.7164 12.016C43.759 11.568 43.935 11.1627 44.2444 10.8C44.5644 10.4373 44.9804 10.1547 45.4924 9.952C46.015 9.74933 46.5964 9.648 47.2364 9.648ZM46.9164 16.448C47.375 16.448 47.7644 16.3253 48.0844 16.08C48.4044 15.8347 48.5644 15.52 48.5644 15.136V14.56C48.5644 14.5067 48.5377 14.48 48.4844 14.48H47.3324C46.8524 14.48 46.4737 14.5707 46.1964 14.752C45.9297 14.9333 45.7964 15.1893 45.7964 15.52C45.7964 15.808 45.8977 16.0373 46.1004 16.208C46.303 16.368 46.575 16.448 46.9164 16.448ZM53.9455 8.848C53.5828 8.848 53.2788 8.73067 53.0335 8.496C52.7988 8.25067 52.6815 7.94667 52.6815 7.584C52.6815 7.21067 52.7988 6.90667 53.0335 6.672C53.2682 6.43733 53.5722 6.32 53.9455 6.32C54.3188 6.32 54.6228 6.43733 54.8575 6.672C55.0922 6.90667 55.2095 7.21067 55.2095 7.584C55.2095 7.94667 55.0868 8.25067 54.8415 8.496C54.6068 8.73067 54.3082 8.848 53.9455 8.848ZM52.9855 18C52.9322 18 52.8842 17.984 52.8415 17.952C52.8095 17.9093 52.7935 17.8613 52.7935 17.808V9.952C52.7935 9.89867 52.8095 9.856 52.8415 9.824C52.8842 9.78133 52.9322 9.76 52.9855 9.76H54.8575C54.9108 9.76 54.9535 9.78133 54.9855 9.824C55.0282 9.856 55.0495 9.89867 55.0495 9.952V17.808C55.0495 17.8613 55.0282 17.9093 54.9855 17.952C54.9535 17.984 54.9108 18 54.8575 18H52.9855ZM57.3196 18C57.2663 18 57.2183 17.984 57.1756 17.952C57.1436 17.9093 57.1276 17.8613 57.1276 17.808V6.992C57.1276 6.93867 57.1436 6.896 57.1756 6.864C57.2183 6.82133 57.2663 6.8 57.3196 6.8H59.1916C59.245 6.8 59.2876 6.82133 59.3196 6.864C59.3623 6.896 59.3836 6.93867 59.3836 6.992V17.808C59.3836 17.8613 59.3623 17.9093 59.3196 17.952C59.2876 17.984 59.245 18 59.1916 18H57.3196ZM64.9699 18.128C64.1165 18.128 63.3752 17.9147 62.7459 17.488C62.1272 17.0613 61.6845 16.4747 61.4179 15.728C61.2365 15.1947 61.1459 14.5653 61.1459 13.84C61.1459 13.1253 61.2365 12.5067 61.4179 11.984C61.6739 11.2587 62.1165 10.688 62.7459 10.272C63.3752 9.856 64.1165 9.648 64.9699 9.648C65.8232 9.648 66.5699 9.86133 67.2099 10.288C67.8605 10.7147 68.2925 11.2533 68.5059 11.904C68.5912 12.16 68.6339 12.352 68.6339 12.48V12.512C68.6339 12.608 68.5805 12.6667 68.4739 12.688L66.6339 12.96H66.6019C66.5059 12.96 66.4419 12.9067 66.4099 12.8L66.3619 12.544C66.2872 12.2667 66.1219 12.0373 65.8659 11.856C65.6099 11.6747 65.3059 11.584 64.9539 11.584C64.6125 11.584 64.3245 11.6693 64.0899 11.84C63.8552 12.0107 63.6899 12.2453 63.5939 12.544C63.4765 12.864 63.4179 13.3013 63.4179 13.856C63.4179 14.4107 63.4712 14.848 63.5779 15.168C63.6739 15.488 63.8392 15.7387 64.0739 15.92C64.3192 16.1013 64.6125 16.192 64.9539 16.192C65.2845 16.192 65.5725 16.1067 65.8179 15.936C66.0739 15.7547 66.2499 15.5093 66.3459 15.2C66.3565 15.1787 66.3619 15.1467 66.3619 15.104C66.3725 15.0933 66.3779 15.0773 66.3779 15.056C66.3885 14.928 66.4632 14.8747 66.6019 14.896L68.4419 15.184C68.5485 15.2053 68.6019 15.264 68.6019 15.36C68.6019 15.4453 68.5699 15.6053 68.5059 15.84C68.2819 16.5547 67.8445 17.1147 67.1939 17.52C66.5539 17.9253 65.8125 18.128 64.9699 18.128ZM73.5476 9.648C74.241 9.648 74.8596 9.77067 75.4036 10.016C75.9476 10.2507 76.369 10.576 76.6676 10.992C76.977 11.408 77.1316 11.872 77.1316 12.384V17.808C77.1316 17.8613 77.1103 17.9093 77.0676 17.952C77.0356 17.984 76.993 18 76.9396 18H75.0676C75.0143 18 74.9663 17.984 74.9236 17.952C74.8916 17.9093 74.8756 17.8613 74.8756 17.808V17.28C74.8756 17.248 74.865 17.2267 74.8436 17.216C74.8223 17.2053 74.801 17.216 74.7796 17.248C74.3316 17.8347 73.6116 18.128 72.6196 18.128C71.7876 18.128 71.1156 17.9253 70.6036 17.52C70.0916 17.1147 69.8356 16.5173 69.8356 15.728C69.8356 14.9067 70.1236 14.272 70.6996 13.824C71.2756 13.3653 72.097 13.136 73.1636 13.136H74.7956C74.849 13.136 74.8756 13.1093 74.8756 13.056V12.704C74.8756 12.352 74.769 12.08 74.5556 11.888C74.3423 11.6853 74.0223 11.584 73.5956 11.584C73.265 11.584 72.9876 11.6427 72.7636 11.76C72.5503 11.8773 72.4116 12.0427 72.3476 12.256C72.3156 12.3733 72.2463 12.4267 72.1396 12.416L70.2036 12.16C70.0756 12.1387 70.017 12.0907 70.0276 12.016C70.0703 11.568 70.2463 11.1627 70.5556 10.8C70.8756 10.4373 71.2916 10.1547 71.8036 9.952C72.3263 9.74933 72.9076 9.648 73.5476 9.648ZM73.2276 16.448C73.6863 16.448 74.0756 16.3253 74.3956 16.08C74.7156 15.8347 74.8756 15.52 74.8756 15.136V14.56C74.8756 14.5067 74.849 14.48 74.7956 14.48H73.6436C73.1636 14.48 72.785 14.5707 72.5076 14.752C72.241 14.9333 72.1076 15.1893 72.1076 15.52C72.1076 15.808 72.209 16.0373 72.4116 16.208C72.6143 16.368 72.8863 16.448 73.2276 16.448ZM83.5889 11.392C83.5889 11.4453 83.5675 11.4933 83.5249 11.536C83.4929 11.568 83.4502 11.584 83.3969 11.584H81.8609C81.8075 11.584 81.7809 11.6107 81.7809 11.664V15.056C81.7809 15.408 81.8502 15.6693 81.9889 15.84C82.1382 16.0107 82.3729 16.096 82.6929 16.096H83.2209C83.2742 16.096 83.3169 16.1173 83.3489 16.16C83.3915 16.192 83.4129 16.2347 83.4129 16.288V17.808C83.4129 17.9253 83.3489 17.9947 83.2209 18.016C82.7729 18.0373 82.4529 18.048 82.2609 18.048C81.3755 18.048 80.7142 17.904 80.2769 17.616C79.8395 17.3173 79.6155 16.7627 79.6049 15.952V11.664C79.6049 11.6107 79.5782 11.584 79.5249 11.584H78.6129C78.5595 11.584 78.5115 11.568 78.4689 11.536C78.4369 11.4933 78.4209 11.4453 78.4209 11.392V9.968C78.4209 9.91467 78.4369 9.872 78.4689 9.84C78.5115 9.79733 78.5595 9.776 78.6129 9.776H79.5249C79.5782 9.776 79.6049 9.74933 79.6049 9.696V7.792C79.6049 7.73867 79.6209 7.696 79.6529 7.664C79.6955 7.62133 79.7435 7.6 79.7969 7.6H81.5889C81.6422 7.6 81.6849 7.62133 81.7169 7.664C81.7595 7.696 81.7809 7.73867 81.7809 7.792V9.696C81.7809 9.74933 81.8075 9.776 81.8609 9.776H83.3969C83.4502 9.776 83.4929 9.79733 83.5249 9.84C83.5675 9.872 83.5889 9.91467 83.5889 9.968V11.392ZM88.547 9.648C89.2403 9.648 89.859 9.77067 90.403 10.016C90.947 10.2507 91.3683 10.576 91.667 10.992C91.9763 11.408 92.131 11.872 92.131 12.384V17.808C92.131 17.8613 92.1097 17.9093 92.067 17.952C92.035 17.984 91.9923 18 91.939 18H90.067C90.0137 18 89.9657 17.984 89.923 17.952C89.891 17.9093 89.875 17.8613 89.875 17.808V17.28C89.875 17.248 89.8643 17.2267 89.843 17.216C89.8217 17.2053 89.8003 17.216 89.779 17.248C89.331 17.8347 88.611 18.128 87.619 18.128C86.787 18.128 86.115 17.9253 85.603 17.52C85.091 17.1147 84.835 16.5173 84.835 15.728C84.835 14.9067 85.123 14.272 85.699 13.824C86.275 13.3653 87.0963 13.136 88.163 13.136H89.795C89.8483 13.136 89.875 13.1093 89.875 13.056V12.704C89.875 12.352 89.7683 12.08 89.555 11.888C89.3417 11.6853 89.0217 11.584 88.595 11.584C88.2643 11.584 87.987 11.6427 87.763 11.76C87.5497 11.8773 87.411 12.0427 87.347 12.256C87.315 12.3733 87.2457 12.4267 87.139 12.416L85.203 12.16C85.075 12.1387 85.0163 12.0907 85.027 12.016C85.0697 11.568 85.2457 11.1627 85.555 10.8C85.875 10.4373 86.291 10.1547 86.803 9.952C87.3257 9.74933 87.907 9.648 88.547 9.648ZM88.227 16.448C88.6857 16.448 89.075 16.3253 89.395 16.08C89.715 15.8347 89.875 15.52 89.875 15.136V14.56C89.875 14.5067 89.8483 14.48 89.795 14.48H88.643C88.163 14.48 87.7843 14.5707 87.507 14.752C87.2403 14.9333 87.107 15.1893 87.107 15.52C87.107 15.808 87.2083 16.0373 87.411 16.208C87.6137 16.368 87.8857 16.448 88.227 16.448ZM94.2321 18C94.1788 18 94.1308 17.984 94.0881 17.952C94.0561 17.9093 94.0401 17.8613 94.0401 17.808V6.992C94.0401 6.93867 94.0561 6.896 94.0881 6.864C94.1308 6.82133 94.1788 6.8 94.2321 6.8H96.1041C96.1575 6.8 96.2001 6.82133 96.2321 6.864C96.2748 6.896 96.2961 6.93867 96.2961 6.992V17.808C96.2961 17.8613 96.2748 17.9093 96.2321 17.952C96.2001 17.984 96.1575 18 96.1041 18H94.2321ZM101.898 18.128C101.002 18.128 100.234 17.8933 99.5944 17.424C98.9544 16.9547 98.517 16.3147 98.2824 15.504C98.133 15.0027 98.0584 14.4587 98.0584 13.872C98.0584 13.2427 98.133 12.6773 98.2824 12.176C98.5277 11.3867 98.9704 10.768 99.6104 10.32C100.25 9.872 101.018 9.648 101.914 9.648C102.789 9.648 103.536 9.872 104.154 10.32C104.773 10.7573 105.21 11.3707 105.466 12.16C105.637 12.6933 105.722 13.2533 105.722 13.84C105.722 14.416 105.648 14.9547 105.498 15.456C105.264 16.288 104.826 16.944 104.186 17.424C103.557 17.8933 102.794 18.128 101.898 18.128ZM101.898 16.192C102.25 16.192 102.549 16.0853 102.794 15.872C103.04 15.6587 103.216 15.3653 103.322 14.992C103.408 14.6507 103.45 14.2773 103.45 13.872C103.45 13.424 103.408 13.0453 103.322 12.736C103.205 12.3733 103.024 12.0907 102.778 11.888C102.533 11.6853 102.234 11.584 101.882 11.584C101.52 11.584 101.216 11.6853 100.97 11.888C100.736 12.0907 100.565 12.3733 100.458 12.736C100.373 12.992 100.33 13.3707 100.33 13.872C100.33 14.352 100.368 14.7253 100.442 14.992C100.549 15.3653 100.725 15.6587 100.97 15.872C101.226 16.0853 101.536 16.192 101.898 16.192ZM112.517 9.968C112.517 9.91467 112.533 9.872 112.565 9.84C112.607 9.79733 112.655 9.776 112.709 9.776H114.581C114.634 9.776 114.677 9.79733 114.709 9.84C114.751 9.872 114.773 9.91467 114.773 9.968V17.264C114.773 18.6613 114.367 19.6587 113.557 20.256C112.757 20.8533 111.722 21.152 110.453 21.152C110.079 21.152 109.663 21.1253 109.205 21.072C109.098 21.0613 109.045 20.992 109.045 20.864L109.109 19.216C109.109 19.0773 109.183 19.0187 109.333 19.04C109.717 19.104 110.069 19.136 110.389 19.136C111.071 19.136 111.594 18.9867 111.957 18.688C112.33 18.3893 112.517 17.9093 112.517 17.248C112.517 17.216 112.506 17.2 112.485 17.2C112.463 17.1893 112.442 17.1947 112.421 17.216C112.015 17.6533 111.423 17.872 110.645 17.872C109.951 17.872 109.311 17.7067 108.725 17.376C108.149 17.0347 107.738 16.4907 107.493 15.744C107.333 15.2533 107.253 14.6187 107.253 13.84C107.253 13.008 107.349 12.3307 107.541 11.808C107.765 11.1573 108.143 10.6347 108.677 10.24C109.21 9.84533 109.829 9.648 110.533 9.648C111.354 9.648 111.983 9.89333 112.421 10.384C112.442 10.4053 112.463 10.416 112.485 10.416C112.506 10.4053 112.517 10.384 112.517 10.352V9.968ZM112.389 15.136C112.474 14.816 112.517 14.3787 112.517 13.824C112.517 13.4933 112.506 13.2373 112.485 13.056C112.463 12.8747 112.426 12.704 112.373 12.544C112.277 12.256 112.117 12.0267 111.893 11.856C111.669 11.6747 111.391 11.584 111.061 11.584C110.741 11.584 110.469 11.6747 110.245 11.856C110.021 12.0267 109.855 12.256 109.749 12.544C109.599 12.864 109.525 13.296 109.525 13.84C109.525 14.4373 109.589 14.864 109.717 15.12C109.813 15.408 109.978 15.6427 110.213 15.824C110.458 15.9947 110.746 16.08 111.077 16.08C111.418 16.08 111.701 15.9947 111.925 15.824C112.149 15.6427 112.303 15.4133 112.389 15.136Z" fill="white"/>
<path fill-rule="evenodd" clip-rule="evenodd" d="M0 1C0 0.447715 0.447715 0 1 0H19C19.5523 0 20 0.447715 20 1V22C20 22.5523 19.5523 23 19 23H1C0.447715 23 0 22.5523 0 22V1ZM3.00004 4.00004C3.00004 3.44776 3.44776 3.00004 4.00004 3.00004H16C16.5523 3.00004 17 3.44776 17 4.00004V16.397L13 13L10.3699 15.2337L5.99655 19.1211L5 18L7.82808 15.4862L6.00004 14L3.00004 16.4389V4.00004Z" fill="white"/>
</svg>
