<svg width="16" height="16" viewBox="0 0 16 16" fill="none" xmlns="http://www.w3.org/2000/svg">
<rect x="0.5" y="0.5" width="15" height="15" rx="1.5" fill="black" stroke="white"/>
<path d="M9.61998 5.73341C9.55428 5.63341 9.47429 5.54674 9.40002 5.46007C9.20863 5.26006 8.99153 5.11673 8.8087 4.90672C8.38307 4.42004 8.2888 3.61668 8.56018 3C8.2888 3.07667 8.0517 3.25001 7.84888 3.44001C7.10901 4.13337 6.81764 5.35673 7.16615 6.40676C7.17757 6.4401 7.189 6.47343 7.189 6.51677C7.189 6.5901 7.14615 6.65677 7.08902 6.68344C7.02331 6.71677 6.95476 6.69677 6.90048 6.64344C6.88334 6.62677 6.87191 6.6101 6.86049 6.58677C6.53769 6.11009 6.48627 5.42674 6.70337 4.88005C6.22632 5.3334 5.96637 6.10009 6.0035 6.82344C6.02064 6.99011 6.03778 7.15679 6.08634 7.32346C6.12634 7.52346 6.20346 7.72347 6.28916 7.90014C6.59768 8.47682 7.13187 8.89017 7.70605 8.9735C8.31736 9.06351 8.97153 8.9335 9.44001 8.44015C9.96278 7.88681 10.1456 7.00011 9.87708 6.24009L9.83994 6.15342C9.77995 6.00009 9.61998 5.73341 9.61998 5.73341ZM8.71729 7.83347C8.6373 7.91347 8.5059 8.00014 8.40306 8.03348C8.08312 8.16681 7.76318 7.98014 7.57464 7.76014C7.91458 7.6668 8.1174 7.37346 8.17739 7.07678C8.22595 6.81011 8.13454 6.5901 8.0974 6.33343C8.06312 6.08675 8.06884 5.87675 8.14597 5.64674C8.20024 5.77341 8.25737 5.90008 8.32593 6.00009C8.54589 6.33343 8.89154 6.4801 8.96582 6.93345C8.97724 6.98011 8.98296 7.02678 8.98296 7.07678C8.99153 7.35012 8.88869 7.65013 8.71729 7.83347Z" fill="white"/>
<rect x="4" y="12.0957" width="8" height="1" transform="rotate(-15 4 12.0957)" fill="white"/>
<rect width="8" height="1" transform="matrix(0.965926 0.258819 0.258819 -0.965926 4 10.9668)" fill="white"/>
</svg>
