<svg width="16" height="16" viewBox="0 0 16 16" fill="none" xmlns="http://www.w3.org/2000/svg">
<rect x="0.5" y="0.5" width="15" height="15" rx="1.5" fill="black"/>
<path d="M6.15247 9.47665V13H4V3H8.07534C8.85979 3 9.54858 3.13736 10.1417 3.41209C10.7396 3.68681 11.1988 4.0783 11.5193 4.58654C11.8398 5.0902 12 5.66484 12 6.31044C12 7.29029 11.6484 8.0641 10.9453 8.63187C10.2469 9.19506 9.27833 9.47665 8.03946 9.47665H6.15247ZM6.15247 7.80769H8.07534C8.64454 7.80769 9.07743 7.67949 9.37399 7.42308C9.67534 7.16667 9.82601 6.80037 9.82601 6.32418C9.82601 5.83425 9.67534 5.43819 9.37399 5.13599C9.07265 4.83379 8.6565 4.67811 8.12556 4.66896H6.15247V7.80769Z" fill="white"/>
</svg>
