<svg width="16" height="16" viewBox="0 0 16 16" fill="none" xmlns="http://www.w3.org/2000/svg">
<rect x="0.5" y="0.5" width="15" height="15" rx="1.5" fill="black" stroke="white"/>
<path d="M5.11206 4.96471C5.52667 4.96471 5.86279 4.63682 5.86279 4.23235C5.86279 3.82789 5.52667 3.5 5.11206 3.5C4.69744 3.5 4.36133 3.82789 4.36133 4.23235C4.36133 4.63682 4.69744 4.96471 5.11206 4.96471Z" fill="white"/>
<path d="M5.0076 9.60715V12.1535C5.00368 12.6161 4.29776 12.6161 4.29152 12.1535V9.60715H3.36755L4.36082 6.20453H4.19913L3.62164 8.14245C3.47565 8.57104 2.88153 8.39753 3.02105 7.93964L3.66784 5.84399C3.74222 5.60332 4.05314 5.17836 4.59182 5.16797H5.0769H5.63129C6.15445 5.17836 6.46666 5.60693 6.55527 5.84399L7.20205 7.93964C7.33325 8.39528 6.74385 8.58231 6.60147 8.14245L6.02398 6.20453H5.83918L6.85556 9.60715H5.90848V12.1535C5.91587 12.6161 5.21273 12.6139 5.2155 12.1535V9.60715H5.0076Z" fill="white"/>
<path d="M11.2566 4.96471C11.6712 4.96471 12.0073 4.63682 12.0073 4.23235C12.0073 3.82789 11.6712 3.5 11.2566 3.5C10.842 3.5 10.5059 3.82789 10.5059 4.23235C10.5059 4.63682 10.842 4.96471 11.2566 4.96471Z" fill="white"/>
<path d="M10.4598 5.16797C9.88255 5.16797 9.51273 5.65554 9.51273 6.13693V8.39032C9.50741 8.83064 10.1573 8.83064 10.1595 8.39032V6.3172H10.3212V12.0408C10.3112 12.6384 11.1768 12.6213 11.1759 12.0408V8.7058H11.3145V12.0408C11.3258 12.6213 12.196 12.6384 12.1923 12.0408V6.3172H12.354V8.39032C12.3463 8.83402 12.9929 8.83402 13.0007 8.39032V6.13693C12.9915 5.65554 12.6078 5.1766 12.0306 5.16797H10.4598Z" fill="white"/>
<path d="M8.65752 3H7.80273V13H8.65752V3Z" fill="white"/>
</svg>
