<svg width="16" height="16" viewBox="0 0 16 16" fill="none" xmlns="http://www.w3.org/2000/svg">
<rect x="0.5" y="0.5" width="15" height="15" rx="1.5" fill="black"/>
<path d="M7.97479 4.57218C8.40909 4.57218 8.75978 4.21919 8.75978 3.78489C8.75978 3.3506 8.40909 3 7.97479 3C7.5405 3 7.1875 3.3506 7.1875 3.78489C7.1875 4.21919 7.5405 4.57218 7.97479 4.57218Z" fill="white"/>
<path d="M6.64862 4.70313C6.67882 4.58233 6.60222 4.46164 6.48372 4.43144L5.82882 4.27354C5.70573 4.24574 5.58503 4.31764 5.55713 4.43844L5.00673 6.71661C4.97653 6.83741 5.05083 6.95811 5.17163 6.98831L5.82882 7.14621C5.94732 7.17641 6.07032 7.10211 6.09822 6.98131L6.64862 4.70313Z" fill="white"/>
<path d="M9.67027 12.8051C9.67027 12.8098 9.66797 12.8145 9.66797 12.8167C9.66797 12.9166 9.74927 12.9979 9.84917 12.9979C9.93977 12.9979 10.0164 12.9282 10.028 12.84L11.3471 5.68499C11.3471 5.68039 11.3471 5.67569 11.3471 5.67099C11.3471 5.57349 11.2681 5.49219 11.1683 5.49219C11.0777 5.49219 11.008 5.56189 10.9894 5.65009L9.67027 12.8051Z" fill="white"/>
<path d="M5.28274 12.3363C5.27574 12.3735 5.27344 12.4107 5.27344 12.4478C5.27344 12.7544 5.51963 13.0006 5.82613 13.0006C6.07693 13.0006 6.28833 12.8334 6.35563 12.6058L7.30552 8.67411L8.21121 12.5826C8.26931 12.8241 8.4876 13.0007 8.7453 13.0007C9.0519 13.0007 9.298 12.7545 9.298 12.448C9.298 12.4062 9.2934 12.3668 9.2865 12.3273L8.04401 7.13433L8.14851 6.67683L8.22971 7.03683C8.30401 7.27132 8.5177 7.29462 8.5177 7.29462L9.79729 7.61972C9.82289 7.62442 9.84839 7.62672 9.87399 7.62672C10.083 7.62672 10.2525 7.45952 10.2525 7.25052C10.2525 7.07173 10.1295 6.92073 9.96229 6.88133L8.8544 6.60263L8.5502 5.36714C8.40621 4.67745 7.74671 4.69365 7.74671 4.69365C7.10572 4.67735 6.94552 5.35084 6.94552 5.35084L5.28274 12.3363Z" fill="white"/>
</svg>
