<svg width="16" height="16" viewBox="0 0 16 16" fill="none" xmlns="http://www.w3.org/2000/svg">
<rect x="0.5" y="0.5" width="15" height="15" rx="1.5" fill="black" stroke="white"/>
<path d="M10.146 11.9185L10.0063 12.4897C9.5874 12.6548 9.25309 12.7796 9.00342 12.8643C8.75374 12.9531 8.46387 12.9976 8.13379 12.9976C7.62598 12.9976 7.23031 12.8748 6.94678 12.6294C6.66748 12.3797 6.52783 12.0645 6.52783 11.6836C6.52783 11.5355 6.53841 11.3853 6.55957 11.2329C6.58073 11.0763 6.61458 10.9007 6.66113 10.7061L7.18164 8.85254C7.22819 8.6748 7.26628 8.50765 7.2959 8.35107C7.32975 8.19027 7.34668 8.04427 7.34668 7.91309C7.34668 7.67611 7.29801 7.51107 7.20068 7.41797C7.10335 7.32487 6.91715 7.27832 6.64209 7.27832C6.50667 7.27832 6.36702 7.29948 6.22314 7.3418C6.0835 7.38411 5.96289 7.42432 5.86133 7.4624L6.00098 6.89111C6.34375 6.75146 6.67171 6.63298 6.98486 6.53564C7.29801 6.43408 7.59424 6.3833 7.87354 6.3833C8.37712 6.3833 8.76432 6.50602 9.03516 6.75146C9.31022 6.99268 9.44775 7.30794 9.44775 7.69727C9.44775 7.77767 9.43717 7.91943 9.41602 8.12256C9.39909 8.32568 9.36523 8.51188 9.31445 8.68115L8.79395 10.5283C8.75163 10.6764 8.71354 10.8457 8.67969 11.0361C8.64583 11.2266 8.62891 11.3704 8.62891 11.4678C8.62891 11.7132 8.68392 11.8804 8.79395 11.9692C8.90397 12.0581 9.0944 12.1025 9.36523 12.1025C9.49219 12.1025 9.63607 12.0814 9.79688 12.0391C9.95768 11.9925 10.0741 11.9523 10.146 11.9185ZM10.2793 4.16797C10.2793 4.48958 10.1566 4.76465 9.91113 4.99316C9.66992 5.21745 9.37793 5.32959 9.03516 5.32959C8.69238 5.32959 8.39827 5.21745 8.15283 4.99316C7.90739 4.76465 7.78467 4.48958 7.78467 4.16797C7.78467 3.84635 7.90739 3.57129 8.15283 3.34277C8.39827 3.11426 8.69238 3 9.03516 3C9.37793 3 9.66992 3.11426 9.91113 3.34277C10.1566 3.57129 10.2793 3.84635 10.2793 4.16797Z" fill="white"/>
</svg>
