<svg width="16" height="16" viewBox="0 0 16 16" fill="none" xmlns="http://www.w3.org/2000/svg">
<rect x="0.5" y="0.5" width="15" height="15" rx="1.5" fill="black"/>
<path d="M6.495 10.3258C5.53024 11.6917 3.7922 12.6846 3 12.8V13H13V12.8C12.2078 12.6846 10.4698 11.6917 9.505 10.3258C8.9784 9.58022 8.61961 8.54954 8.52641 8.20315C8.33792 8.36327 8.15361 8.50006 8 8.50006C7.84639 8.50006 7.66208 8.36327 7.47359 8.20315C7.38039 8.54954 7.0216 9.58022 6.495 10.3258Z" fill="white"/>
<path fill-rule="evenodd" clip-rule="evenodd" d="M5.63415 4.08911C5.55813 4.08911 5.48524 4.10268 5.41769 4.12757C5.3912 4.13269 5.37133 4.13805 5.35294 4.14668C5.33224 4.1564 5.31343 4.17026 5.28919 4.19256C5.11513 4.30729 5 4.50634 5 4.73267C5 5.0881 5.28392 5.37624 5.63415 5.37624C5.68843 5.37624 5.74113 5.36932 5.79142 5.35629C5.85141 5.70513 6.15129 5.9703 6.51219 5.9703C6.55015 5.9703 6.58744 5.96736 6.62384 5.96171C6.68082 5.96718 6.74132 5.9703 6.80488 5.9703C6.90245 5.9703 7.14634 5.9703 7.14634 6.16832L7.14759 6.16797C7.16222 6.45647 7.30495 6.71061 7.51917 6.87295C7.69732 7.13727 7.8168 7.3405 7.82927 7.50495V9H8.12195C8.12195 9 8.02439 7.20792 8.31707 7.05941C8.38597 7.02445 8.44675 6.98949 8.50134 6.95324C8.79769 6.7963 9 6.48153 9 6.11881C9 6.07856 8.99751 6.0389 8.99267 5.99997C8.99511 5.99999 8.99756 6 9 6C9.55228 6 10 5.55228 10 5C10 4.44772 9.55228 4 9 4C8.85681 4 8.72065 4.03009 8.5975 4.0843C8.52537 3.63775 8.14335 3.29703 7.68293 3.29703C7.64927 3.29703 7.61603 3.29885 7.58329 3.3024C7.41397 3.11644 7.1716 3 6.90244 3C6.49127 3 6.14263 3.27172 6.02137 3.64787C5.97211 3.71857 5.93947 3.78301 5.91072 3.83977C5.84643 3.96666 5.80162 4.05512 5.63415 4.08911Z" fill="white"/>
</svg>
