<svg width="16" height="16" viewBox="0 0 16 16" fill="none" xmlns="http://www.w3.org/2000/svg">
<rect x="0.5" y="0.5" width="15" height="15" rx="1.5" fill="black" stroke="white"/>
<g clip-path="url(#clip0_4016_108943)">
<path d="M3.71429 10.8577C4.17214 10.8577 5.02071 11.572 5.42857 11.572C5.81071 11.572 6.71071 10.8577 7.14286 10.8577C7.575 10.8577 8.47571 11.572 8.85714 11.572C9.31571 11.572 10.1607 10.8577 10.5707 10.8577C11.0286 10.837 11.9293 11.572 12.285 11.572V13.0006C11.8536 13.0006 10.9779 12.2863 10.5707 12.2863C10.1643 12.2863 9.28857 13.0006 8.85714 13.0006C8.44714 13.0006 7.575 12.2863 7.14286 12.2863C6.70786 12.2863 5.83643 13.0006 5.42857 13.0006C4.97143 13.0006 4.14714 12.2863 3.71429 12.2863V10.8577ZM3.71429 5.14342C4.49571 5.14342 5.14357 5.3577 5.14357 6.39342L5.14286 8.17913C5.14286 9.6077 6.21429 10.322 6.92857 10.322C6.92857 10.322 6.57143 9.6077 6.57143 8.17913V6.39342C6.57143 5.73984 6.10786 5.45913 5.85643 5.14342C6.63786 5.14342 7.28571 5.3577 7.28571 6.39342V8.17913C7.28571 9.6077 8.35714 10.322 9.07143 10.322C9.07143 10.322 8.71429 9.6077 8.71429 8.17913L8.78571 6.39342C8.81184 5.74037 8.25071 5.45913 8 5.14342C8.78071 5.14342 9.42857 5.3577 9.42857 6.39342V8.17913C9.42857 9.6077 10.5 10.322 11.2143 10.322C11.2143 10.322 10.8571 9.6077 10.8571 8.17913V6.39342C10.8571 4.25056 8.71429 3.71484 8 3.71484H3L3.00036 5.14342H3.71429Z" fill="white"/>
</g>
<defs>
<clipPath id="clip0_4016_108943">
<rect width="10" height="10" fill="white" transform="translate(3 3)"/>
</clipPath>
</defs>
</svg>
